<svg width="19" height="19" xmlns="http://www.w3.org/2000/svg" xmlns:xlink="http://www.w3.org/1999/xlink" overflow="hidden"><defs><clipPath id="clip0"><rect x="384" y="104" width="19" height="19"/></clipPath></defs><g clip-path="url(#clip0)" transform="translate(-384 -104)"><path d="M394.359 123C397.281 123 399.961 121.671 401.737 119.483 402.787 118.19 401.643 116.302 400.021 116.611 396.965 117.193 394.148 114.857 394.148 111.757 394.148 109.96 395.115 108.332 396.65 107.458 398.088 106.64 397.726 104.46 396.093 104.159 395.521 104.053 394.94 104 394.359 104 389.113 104 384.859 108.252 384.859 113.5 384.859 118.746 389.11 123 394.359 123ZM394.359 105.781C394.84 105.781 395.312 105.826 395.769 105.91 393.737 107.067 392.367 109.252 392.367 111.757 392.367 115.982 396.213 119.149 400.354 118.36 398.939 120.104 396.779 121.219 394.359 121.219 390.096 121.219 386.64 117.763 386.64 113.5 386.64 109.237 390.096 105.781 394.359 105.781Z" fill="#E7E6E6"/></g></svg>